<svg width="580" height="400" xmlns="http://www.w3.org/2000/svg">
 <!-- Created with Method Draw - http://github.com/duopixel/Method-Draw/ -->
 <g>
  <title>background</title>
  <rect fill="#fff" id="canvas_background" height="402" width="582" y="-1" x="-1"/>
  <g display="none" overflow="visible" y="0" x="0" height="100%" width="100%" id="canvasGrid">
   <rect fill="url(#gridpattern)" stroke-width="0" y="0" x="0" height="100%" width="100%"/>
  </g>
 </g>
 <g>
  <title>Layer 1</title>
  <path d="m60.5,53.5c0,2 0,15 0,37c0,26 0,46 0,67c0,16 -1.056335,30.032852 0,47c0.500969,8.046677 3.067245,22.622528 10,32c7.997894,10.818207 14.470177,17.912033 26,24c13.469208,7.112 24.847359,9.496552 47,11c13.967865,0.947968 31.025711,0.877808 46,0c17.087906,-1.001709 28.697021,-7.218414 40,-18c11.779343,-11.235977 19.577484,-24.787933 23,-35c3.623169,-10.81076 4.630768,-24.406052 10,-40c3.20636,-9.312317 9.453003,-18.587234 18,-26c7.554535,-6.552017 20.168213,-14.543884 34,-21c17.193024,-8.024986 38.857361,-14.88501 61,-18c19.903778,-2.800026 39.115601,-4.036819 57,-2c13.255981,1.509697 29.851227,13.282486 39,25c11.094513,14.209579 20.298157,35.931244 25,57c5.339661,23.926727 8.998474,49.916946 10,68c0.940094,16.973999 1.800842,29.125977 -5,38c-7.324738,9.557617 -24.315613,17.432831 -42,25c-20.351074,8.708252 -40.935425,11.571777 -65,14c-25.945068,2.61795 -49.014404,2.134766 -75,3c-30.049927,1.000549 -61.953186,3.999512 -94,5c-28.98587,0.904938 -58,0 -87,0c-19,0 -40,0 -53,0l-8,0l-6,0" id="svg_3" stroke-width="1.5" stroke="#000" fill="none"/>
  <path d="m474.5,32.5c0,3 1.309784,7.182011 -1,19c-3.215424,16.451775 -9,32 -16,48c-7,16 -14.114075,29.921112 -21,40c-8.135834,11.90834 -15.331024,25.796219 -22,37c-5.266083,8.846939 -12.101776,24.916611 -17,31c-7.150635,8.880798 -15.485657,18.689133 -26,26c-9.574799,6.657578 -21.893494,14.196701 -31,19c-11.866821,6.259277 -21.791046,11.49353 -38,13c-13.939911,1.295593 -34.673431,3.11087 -60,-4c-25.032074,-7.028198 -45.202423,-20.892975 -58,-36c-11.120651,-13.127487 -15.65387,-30.091873 -19,-42c-4.534714,-16.138046 -8.07103,-30.008484 -14,-39c-3.892563,-5.903214 -9.647491,-9.972519 -14,-11c-2.919754,-0.689255 -10.271255,-1.929779 -17,0c-9.068405,2.600784 -18.203583,15.833237 -28,28c-7.150627,8.880798 -15.031036,20.981781 -25,38c-7.021885,11.987213 -10.930687,20.349152 -15,31c-3.192234,8.355225 -7.346844,16.910065 -9,24c-2.538815,10.888275 -4.542854,23.009491 -5,34c-0.500431,12.031189 -1,23 -1,32c0,10 -0.638329,17.305389 2,22c2.449627,4.358826 6.756344,7.466248 16,12c6.83762,3.353638 16.12397,5.541687 28,9c15.180832,4.420654 27.710968,8.003387 40,11c18.68782,4.556915 32.858475,4.958374 50,7c15.918701,1.895996 31.059982,4.223602 49,6c21.10997,2.090302 36,3 60,3c18,0 36.171722,0.743011 55,-4c17.183228,-4.328583 38.178741,-9.045471 62,-14c20.183594,-4.197937 38,-10 50,-14c12,-4 20.926178,-9.170441 30,-13c4.961395,-2.093933 7,-5 9,-7c1,-1 1,-3 1,-6c0,-3 -3.883392,-13.075073 -11,-24c-11.807861,-18.126617 -24.84906,-36.822906 -38,-54c-12.924194,-16.88092 -28.447968,-32.687119 -43,-54c-15.483612,-22.677261 -30.323761,-48.551208 -50,-72c-15.48053,-18.448654 -27.814392,-31.235756 -43,-43c-11.857971,-9.186333 -21,-16 -28,-21l-6,-5l-4,-4l-2,0" id="svg_4" stroke-width="1.5" stroke="#000" fill="none"/>
 </g>
</svg>