<svg width="580" height="400" xmlns="http://www.w3.org/2000/svg">
 <!-- Created with Method Draw - http://github.com/duopixel/Method-Draw/ -->
 <g>
  <title>background</title>
  <rect fill="#fff" id="canvas_background" height="402" width="582" y="-1" x="-1"/>
  <g display="none" overflow="visible" y="0" x="0" height="100%" width="100%" id="canvasGrid">
   <rect fill="url(#gridpattern)" stroke-width="0" y="0" x="0" height="100%" width="100%"/>
  </g>
 </g>
 <g>
  <title>Layer 1</title>
  <path d="m60.5,53.5c0,2 0,15 0,37c0,26 0,46 0,67c0,16 -1.056335,30.032852 0,47c0.500969,8.046677 3.067245,22.622528 10,32c7.997894,10.818207 14.470177,17.912033 26,24c13.469208,7.112 24.847359,9.496552 47,11c13.967865,0.947968 31.025711,0.877808 46,0c17.087906,-1.001709 28.697021,-7.218414 40,-18c11.779343,-11.235977 19.577484,-24.787933 23,-35c3.623169,-10.81076 4.630768,-24.406052 10,-40c3.20636,-9.312317 9.453003,-18.587234 18,-26c7.554535,-6.552017 20.168213,-14.543884 34,-21c17.193024,-8.024986 38.857361,-14.88501 61,-18c19.903778,-2.800026 39.115601,-4.036819 57,-2c13.255981,1.509697 29.851227,13.282486 39,25c11.094513,14.209579 20.298157,35.931244 25,57c5.339661,23.926727 8.998474,49.916946 10,68c0.940094,16.973999 1.800842,29.125977 -5,38c-7.324738,9.557617 -24.315613,17.432831 -42,25c-20.351074,8.708252 -40.935425,11.571777 -65,14c-25.945068,2.61795 -49.014404,2.134766 -75,3c-30.049927,1.000549 -61.953186,3.999512 -94,5c-28.98587,0.904938 -58,0 -87,0c-19,0 -40,0 -53,0l-8,0l-6,0" id="svg_3" stroke-width="1.5" stroke="#000" fill="none"/>
 </g>
</svg>